<?xml version="1.0" encoding="utf-8"?><svg xmlns="http://www.w3.org/2000/svg" xmlns:xlink="http://www.w3.org/1999/xlink" width="1490" height="1217" preserveAspectRatio="xMidYMid" viewBox="0 0 1490 1217" style="z-index:1;margin-right:-2px;display:block;background-color:rgb(241, 242, 243);animation-play-state:paused" ><g transform="translate(745,608.5) scale(1,1) translate(-745,-608.5)" style="transform:matrix(1, 0, 0, 1, 0, 0);animation-play-state:paused" ><linearGradient id="lg-0.8822885069459718" x1="0" x2="1" y1="0" y2="0" style="animation-play-state:paused" ><stop stop-color="#222222" offset="0" style="animation-play-state:paused" ></stop>

  
<stop stop-color="#00d8ff" offset="1" style="animation-play-state:paused" ></stop></linearGradient>
<path d="M 0 0 L 0 1084.19 Q 149 1035.68 298 997.65 T 596 854.171 T 894 677.786 T 1192 575.411 T 1490 507.829 L 1490 0 Z" fill="url(#lg-0.8822885069459718)" opacity="0.4" style="opacity:0.4;animation-play-state:paused" ></path>
<path d="M 0 0 L 0 1053.22 Q 149 903.183 298 887.112 T 596 828.367 T 894 813.496 T 1192 663.66 T 1490 542.551 L 1490 0 Z" fill="url(#lg-0.8822885069459718)" opacity="0.4" style="opacity:0.4;animation-play-state:paused" ></path>
<path d="M 0 0 L 0 1137.51 Q 149 1102.51 298 1071.16 T 596 837.738 T 894 710.759 T 1192 758.669 T 1490 519.683 L 1490 0 Z" fill="url(#lg-0.8822885069459718)" opacity="0.4" style="opacity:0.4;animation-play-state:paused" ></path></g></svg>